<svg xmlns="http://www.w3.org/2000/svg" viewBox="0 0 16 16" fill="#fff" aria-hidden="true" id="Code-Bracket--Streamline-Heroicons" height="16" width="16"><desc>Code Bracket Streamline Icon: https://streamlinehq.com</desc><path fill-rule="evenodd" d="M9.631333333333332 2.017333333333333a0.5 0.5 0 0 1 0.35133333333333333 0.614l-3 11a0.5 0.5 0 0 1 -0.9653333333333333 -0.26266666666666666l3 -11a0.5 0.5 0 0 1 0.614 -0.35133333333333333ZM11.146666666666665 4.1466666666666665a0.5 0.5 0 0 1 0.7066666666666667 0l3.5 3.5a0.5 0.5 0 0 1 0 0.7066666666666667l-3.5 3.5a0.5 0.5 0 1 1 -0.7066666666666667 -0.7066666666666667L14.293333333333333 8l-3.1466666666666665 -3.1466666666666665a0.5 0.5 0 0 1 0 -0.7066666666666667Zm-6.293333333333333 0a0.5 0.5 0 0 1 0 0.7066666666666667L1.7066666666666666 8l3.1466666666666665 3.1466666666666665a0.5 0.5 0 0 1 -0.7066666666666667 0.7066666666666667L0.6466666666666666 8.353333333333332a0.5 0.5 0 0 1 0 -0.7066666666666667l3.5 -3.5a0.5 0.5 0 0 1 0.7066666666666667 0Z" clip-rule="evenodd" stroke-width="0.6667"></path></svg>