<?xml version="1.0" encoding="UTF-8"?>
<svg id="Layer_1" data-name="Layer 1" xmlns="http://www.w3.org/2000/svg" viewBox="0 0 40 40">
  <defs>
    <style>
      .cls-1 {
        fill: none;
        stroke: #74a7da;
        stroke-miterlimit: 10;
        stroke-width: .5px;
      }

      .cls-2 {
        fill: #121212;
      }

      .cls-3 {
        fill: #f7f7f7;
      }

      .cls-4 {
        fill: #74a7da;
      }
    </style>
  </defs>
  <rect class="cls-3" x="0" y="0" width="40" height="40" rx="20" ry="20"/>
  <g>
    <g>
      <path class="cls-4" d="M30,32.09c-3.04,0-5.52-2.47-5.52-5.52s2.47-5.52,5.52-5.52,5.52,2.47,5.52,5.52-2.47,5.52-5.52,5.52Z"/>
      <path class="cls-2" d="M30,21.3c2.9,0,5.27,2.36,5.27,5.27s-2.36,5.27-5.27,5.27-5.27-2.36-5.27-5.27,2.36-5.27,5.27-5.27M30,20.8c-3.18,0-5.77,2.58-5.77,5.77s2.58,5.77,5.77,5.77,5.77-2.58,5.77-5.77-2.58-5.77-5.77-5.77h0Z"/>
    </g>
    <g>
      <path class="cls-4" d="M10,32.09c-3.04,0-5.52-2.47-5.52-5.52s2.47-5.52,5.52-5.52,5.52,2.47,5.52,5.52-2.47,5.52-5.52,5.52Z"/>
      <path class="cls-2" d="M10,21.3c2.9,0,5.27,2.36,5.27,5.27s-2.36,5.27-5.27,5.27-5.27-2.36-5.27-5.27,2.36-5.27,5.27-5.27M10,20.8c-3.18,0-5.77,2.58-5.77,5.77s2.58,5.77,5.77,5.77,5.77-2.58,5.77-5.77-2.58-5.77-5.77-5.77h0Z"/>
    </g>
    <g>
      <line class="cls-1" x1="20" y1="9.65" x2="14.76" y2="18.52"/>
      <polygon class="cls-4" points="12.98 16.62 12.93 21.61 17.28 19.16 12.98 16.62"/>
    </g>
    <g>
      <line class="cls-1" x1="20" y1="9.65" x2="25.24" y2="18.52"/>
      <polygon class="cls-4" points="22.72 19.16 27.07 21.61 27.02 16.62 22.72 19.16"/>
    </g>
    <g>
      <path class="cls-4" d="M20,15.17c-3.04,0-5.52-2.47-5.52-5.52s2.47-5.52,5.52-5.52,5.52,2.47,5.52,5.52-2.47,5.52-5.52,5.52Z"/>
      <path class="cls-2" d="M20,4.39c2.9,0,5.27,2.36,5.27,5.27s-2.36,5.27-5.27,5.27-5.27-2.36-5.27-5.27,2.36-5.27,5.27-5.27M20,3.89c-3.18,0-5.77,2.58-5.77,5.77s2.58,5.77,5.77,5.77,5.77-2.58,5.77-5.77-2.58-5.77-5.77-5.77h0Z"/>
    </g>
  </g>
</svg>