<?xml version="1.0" encoding="UTF-8"?>
<svg id="Layer_1" data-name="Layer 1" xmlns="http://www.w3.org/2000/svg" xmlns:xlink="http://www.w3.org/1999/xlink" viewBox="0 0 20 20">
  <defs>
    <style>
      .cls-1 {
        fill: none;
      }

      .cls-2 {
        fill: #1e1e1e;
      }

      .cls-3 {
        fill: #fff;
      }

      .cls-4 {
        fill: url(#New_Pattern_Swatch_1);
      }
    </style>
    <pattern id="New_Pattern_Swatch_1" data-name="New Pattern Swatch 1" x="0" y="0" width="4.32" height="4.32" patternUnits="userSpaceOnUse" viewBox="0 0 4.32 4.32">
      <g>
        <rect class="cls-1" width="4.32" height="4.32"/>
        <rect class="cls-2" width="4.32" height="4.32"/>
      </g>
    </pattern>
  </defs>
  <g>
    <rect class="cls-3" x=".83" y=".83" width="18.35" height="18.35" rx="1.19" ry="1.19"/>
    <path class="cls-4" d="M17.99,19.6H2.01c-.89,0-1.62-.73-1.62-1.62V2.01C.4,1.12,1.12.4,2.01.4h15.97c.89,0,1.62.73,1.62,1.62v15.97c0,.89-.73,1.62-1.62,1.62ZM2.01,1.26c-.42,0-.76.34-.76.76v15.97c0,.42.34.76.76.76h15.97c.42,0,.76-.34.76-.76V2.01c0-.42-.34-.76-.76-.76H2.01Z"/>
  </g>
  <g>
    <rect class="cls-3" x="2.78" y="2.78" width="14.43" height="14.43" rx=".13" ry=".13"/>
    <path class="cls-4" d="M17.08,17.58H2.92c-.27,0-.49-.22-.49-.49V2.91c0-.27.22-.49.49-.49h14.17c.27,0,.49.22.49.49v14.17c0,.27-.22.49-.49.49ZM3.15,16.85h13.71V3.15H3.15v13.71Z"/>
  </g>
  <polygon class="cls-4" points="17.39 3.09 16.78 2.48 18.59 .67 19.19 1.28 17.39 3.09"/>
  <polygon class="cls-4" points="18.52 19.12 16.91 17.52 17.52 16.91 19.12 18.52 18.52 19.12"/>
  <polygon class="cls-4" points="2.48 3.09 .87 1.48 1.48 .87 3.09 2.48 2.48 3.09"/>
  <polygon class="cls-4" points="1.49 19.13 .88 18.52 2.52 16.88 3.13 17.48 1.49 19.13"/>
  <g>
    <rect class="cls-4" x="5.62" y="9.6" width="5.71" height=".81"/>
    <polygon class="cls-4" points="10.62 12.41 14.8 10 10.62 7.59 10.62 12.41"/>
  </g>
</svg>