<?xml version="1.0" encoding="UTF-8"?>
<svg id="Layer_1" xmlns="http://www.w3.org/2000/svg" xmlns:xlink="http://www.w3.org/1999/xlink" version="1.1" viewBox="0 0 20 20">
  <!-- Generator: Adobe Illustrator 29.5.1, SVG Export Plug-In . SVG Version: 2.1.0 Build 141)  -->
  <defs>
    <style>
      .st0 {
        fill: none;
      }

      .st1 {
        fill: #1e1e1e;
      }

      .st2 {
        fill: url(#New_Pattern_Swatch_12);
      }

      .st3 {
        fill: url(#New_Pattern_Swatch_11);
      }

      .st4 {
        fill: #fff;
      }

      .st5 {
        fill: url(#New_Pattern_Swatch_1);
      }
    </style>
    <pattern id="New_Pattern_Swatch_1" data-name="New Pattern Swatch 1" x="0" y="0" width="4.3" height="4.3" patternTransform="translate(.4 -16341.6) scale(1 -1)" patternUnits="userSpaceOnUse" viewBox="0 0 4.3 4.3">
      <g>
        <rect class="st0" width="4.3" height="4.3"/>
        <g>
          <rect class="st0" width="4.3" height="4.3"/>
          <rect class="st1" width="4.3" height="4.3"/>
        </g>
      </g>
    </pattern>
    <pattern id="New_Pattern_Swatch_11" data-name="New Pattern Swatch 1" patternTransform="translate(-16361.4 -19.8) rotate(-180) scale(1 -1)" xlink:href="#New_Pattern_Swatch_1"/>
    <pattern id="New_Pattern_Swatch_12" data-name="New Pattern Swatch 1" patternTransform="translate(-16361.4 -19.8) rotate(-180) scale(1 -1)" xlink:href="#New_Pattern_Swatch_1"/>
  </defs>
  <g>
    <rect class="st4" x=".8" y=".8" width="18.4" height="18.4" rx="1.2" ry="1.2"/>
    <path class="st5" d="M18,19.6H2c-.9,0-1.6-.7-1.6-1.6V2c0-.9.7-1.6,1.6-1.6h16c.9,0,1.6.7,1.6,1.6v16c0,.9-.7,1.6-1.6,1.6h0ZM2,1.3c-.4,0-.8.3-.8.8v16c0,.4.3.8.8.8h16c.4,0,.8-.3.8-.8V2c0-.4-.3-.8-.8-.8H2Z"/>
  </g>
  <g>
    <rect class="st4" x="2.8" y="2.8" width="14.4" height="14.4" rx=".1" ry=".1"/>
    <path class="st5" d="M17.1,17.6H2.9c-.3,0-.5-.2-.5-.5V2.9c0-.3.2-.5.5-.5h14.2c.3,0,.5.2.5.5v14.2c0,.3-.2.5-.5.5h0ZM3.2,16.9h13.7V3.2H3.2v13.7h0Z"/>
  </g>
  <polygon class="st5" points="17.4 3.1 16.8 2.5 18.6 .7 19.2 1.3 17.4 3.1"/>
  <polygon class="st5" points="18.5 19.1 16.9 17.5 17.5 16.9 19.1 18.5 18.5 19.1"/>
  <polygon class="st5" points="2.5 3.1 .9 1.5 1.5 .9 3.1 2.5 2.5 3.1"/>
  <polygon class="st5" points="1.5 19.1 .9 18.5 2.5 16.9 3.1 17.5 1.5 19.1"/>
  <g>
    <polygon class="st3" points="14.8 10.4 9.1 10.4 9.1 9.6 14.8 9.6 14.8 10.4"/>
    <polygon class="st2" points="9.8 7.6 5.6 10 9.8 12.4 9.8 7.6"/>
  </g>
</svg>